<?xml version="1.0" encoding="UTF-8"?>
<svg width="1600" height="900" viewBox="0 0 1600 900" fill="none" xmlns="http://www.w3.org/2000/svg">
  <rect width="1600" height="900" fill="#FAF7FF"/>
  <rect x="56" y="56" width="1488" height="788" rx="36" fill="#FFFFFF" stroke="#D9E2F2" stroke-width="2"/>
  <rect x="96" y="100" width="360" height="50" rx="25" fill="#6D28D9" fill-opacity="0.1"/>
  <text x="124" y="134" class="eyebrow" fill="#6D28D9">Day 2 上午 · 程序员场景</text>
  <text x="96" y="244" class="title">让 Codex 直接整理项目架构</text>
  <text x="98" y="315" class="subtitle">不只是输出 Markdown，而是接入真实脑图工作流</text>
  <text x="100" y="374" class="support">项目架构 / 产品结构 / 知识树</text>
  
      <g>
        <rect x="96" y="430" width="610" height="120" rx="22" fill="#FFFFFF" stroke="#D8E0EC" stroke-width="2"/>
        <rect x="124" y="464" width="52" height="52" rx="16" fill="#6D28D9" fill-opacity="0.12"/>
        <text x="142" y="501" class="num" fill="#6D28D9">1</text>
        <text x="200" y="505" class="card-text">打开项目脑图</text>
      </g>
      <g>
        <rect x="800" y="430" width="610" height="120" rx="22" fill="#FFFFFF" stroke="#D8E0EC" stroke-width="2"/>
        <rect x="828" y="464" width="52" height="52" rx="16" fill="#6D28D9" fill-opacity="0.12"/>
        <text x="846" y="501" class="num" fill="#6D28D9">2</text>
        <text x="904" y="505" class="card-text">读取已有节点</text>
      </g>
      <g>
        <rect x="96" y="602" width="610" height="120" rx="22" fill="#FFFFFF" stroke="#D8E0EC" stroke-width="2"/>
        <rect x="124" y="636" width="52" height="52" rx="16" fill="#6D28D9" fill-opacity="0.12"/>
        <text x="142" y="673" class="num" fill="#6D28D9">3</text>
        <text x="200" y="677" class="card-text">生成结构优化提案</text>
      </g>
      <g>
        <rect x="800" y="602" width="610" height="120" rx="22" fill="#FFFFFF" stroke="#D8E0EC" stroke-width="2"/>
        <rect x="828" y="636" width="52" height="52" rx="16" fill="#6D28D9" fill-opacity="0.12"/>
        <text x="846" y="673" class="num" fill="#6D28D9">4</text>
        <text x="904" y="677" class="card-text">你确认后再应用</text>
      </g>
  <text x="96" y="806" class="footer">github.com/guanxuewen-eng/ai-xw-mindmap</text>
  <text x="1040" y="806" class="footer-right">AI 先提案，你确认后再改</text>
  <style>
    text { font-family: "PingFang SC", "Microsoft YaHei", "Noto Sans CJK SC", Arial, sans-serif; }
    .eyebrow { font-size: 24px; font-weight: 800; }
    .title { font-size: 64px; font-weight: 900; fill: #111827; letter-spacing: 0; }
    .subtitle { font-size: 32px; font-weight: 700; fill: #334155; letter-spacing: 0; }
    .support { font-size: 24px; font-weight: 700; fill: #64748B; }
    .num { font-size: 26px; font-weight: 900; }
    .card-text { font-size: 28px; font-weight: 800; fill: #1F2937; }
    .footer { font-size: 22px; font-weight: 800; fill: #111827; }
    .footer-right { font-size: 22px; font-weight: 800; fill: #64748B; }
  </style>
</svg>